<svg width="1074" height="1074" viewBox="0 0 1074 1074" fill="none" xmlns="http://www.w3.org/2000/svg">
<g clip-path="url(#clip0_56_43)">
<path d="M109.635 536.5C109.635 535.529 109.898 534.845 110.096 534.513C110.183 534.366 110.282 534.24 110.426 534.106C110.559 533.983 110.894 533.702 111.593 533.358L314.145 433.904C315.309 433.333 315.912 433.259 316.003 433.248C316.114 433.235 316.148 433.241 316.203 433.254C316.41 433.301 317.302 433.613 318.283 434.697C319.265 435.782 319.487 436.701 319.513 436.91C319.52 436.966 319.523 437 319.499 437.109C319.479 437.199 319.345 437.791 318.661 438.893L296.214 475.045C272.843 512.682 272.843 560.318 296.214 597.955L318.662 634.107C319.346 635.209 319.479 635.801 319.499 635.891C319.523 636 319.52 636.033 319.513 636.09C319.487 636.299 319.265 637.218 318.283 638.303C317.302 639.387 316.41 639.699 316.203 639.746C316.148 639.759 316.114 639.765 316.003 639.752C315.912 639.741 315.309 639.667 314.145 639.096L111.593 539.642C110.894 539.298 110.559 539.017 110.426 538.894C110.282 538.76 110.183 538.634 110.096 538.487C109.898 538.155 109.635 537.471 109.635 536.5Z" stroke="#B4C053" stroke-width="113"/>
<path d="M964.365 535.5C964.365 536.471 964.102 537.155 963.904 537.487C963.817 537.634 963.718 537.76 963.574 537.894C963.441 538.017 963.106 538.298 962.407 538.642L759.854 638.096C758.691 638.667 758.088 638.741 757.997 638.752C757.886 638.765 757.852 638.759 757.797 638.746C757.59 638.699 756.698 638.387 755.717 637.303C754.735 636.218 754.513 635.299 754.487 635.09C754.48 635.033 754.477 635 754.501 634.891C754.521 634.801 754.655 634.209 755.339 633.107L777.786 596.955C801.157 559.318 801.157 511.682 777.786 474.045L755.338 437.893C754.654 436.791 754.521 436.199 754.501 436.109C754.477 436 754.48 435.966 754.487 435.91C754.513 435.701 754.735 434.782 755.717 433.697C756.698 432.613 757.59 432.301 757.797 432.254C757.852 432.241 757.886 432.235 757.997 432.248C758.088 432.259 758.691 432.333 759.855 432.904L962.407 532.358C963.106 532.702 963.441 532.983 963.574 533.106C963.718 533.24 963.817 533.366 963.904 533.513C964.102 533.845 964.365 534.529 964.365 535.5Z" stroke="#B4C053" stroke-width="113"/>
<path d="M536.5 109.635C537.471 109.635 538.155 109.898 538.487 110.096C538.634 110.183 538.76 110.282 538.894 110.426C539.017 110.559 539.298 110.894 539.642 111.593L639.096 314.145C639.667 315.309 639.741 315.912 639.752 316.003C639.765 316.114 639.759 316.148 639.746 316.203C639.699 316.41 639.387 317.302 638.303 318.283C637.218 319.265 636.299 319.487 636.09 319.513C636.033 319.52 636 319.523 635.891 319.499C635.801 319.479 635.209 319.345 634.107 318.661L597.955 296.214C560.318 272.843 512.682 272.843 475.045 296.214L438.893 318.662C437.791 319.346 437.199 319.479 437.109 319.499C437 319.523 436.967 319.52 436.91 319.513C436.701 319.487 435.782 319.265 434.697 318.283C433.613 317.302 433.301 316.41 433.254 316.203C433.241 316.148 433.235 316.114 433.248 316.003C433.259 315.912 433.333 315.309 433.904 314.145L533.358 111.593C533.702 110.894 533.983 110.559 534.106 110.426C534.24 110.282 534.366 110.183 534.513 110.096C534.845 109.898 535.529 109.635 536.5 109.635Z" stroke="#B4C053" stroke-width="113"/>
<path d="M541.5 964.365C540.529 964.365 539.845 964.102 539.513 963.904C539.366 963.817 539.24 963.718 539.106 963.574C538.983 963.441 538.702 963.106 538.358 962.407L438.904 759.854C438.333 758.691 438.259 758.088 438.248 757.997C438.235 757.886 438.241 757.852 438.254 757.797C438.301 757.59 438.613 756.698 439.697 755.717C440.782 754.735 441.701 754.513 441.91 754.487C441.967 754.48 442 754.477 442.109 754.501C442.199 754.521 442.791 754.655 443.893 755.339L480.045 777.786C517.682 801.157 565.318 801.157 602.955 777.786L639.107 755.338C640.209 754.654 640.801 754.521 640.891 754.501C641 754.477 641.034 754.48 641.09 754.487C641.299 754.513 642.218 754.735 643.303 755.717C644.387 756.698 644.699 757.59 644.746 757.797C644.759 757.852 644.765 757.886 644.752 757.997C644.741 758.088 644.667 758.691 644.096 759.854L544.642 962.407C544.298 963.106 544.017 963.441 543.894 963.574C543.76 963.718 543.634 963.817 543.487 963.904C543.155 964.102 542.471 964.365 541.5 964.365Z" stroke="#B4C053" stroke-width="113"/>
<circle cx="88.1793" cy="88.1793" r="88.1793" transform="matrix(0.25859 -0.965987 0.965865 0.259048 427 597.36)" fill="#363636"/>
</g>
<defs>
<clipPath id="clip0_56_43">
<rect width="1074" height="1074" fill="white"/>
</clipPath>
</defs>
</svg>
